<?xml version="1.0" encoding="utf-8"?>
<!-- Generator: Adobe Illustrator 16.0.0, SVG Export Plug-In . SVG Version: 6.00 Build 0)  -->
<!DOCTYPE svg PUBLIC "-//W3C//DTD SVG 1.1//EN" "http://www.w3.org/Graphics/SVG/1.1/DTD/svg11.dtd">
<svg version="1.1" xmlns="http://www.w3.org/2000/svg" xmlns:xlink="http://www.w3.org/1999/xlink" x="0px" y="0px" width="300px"
	 height="242.5px" viewBox="0 0 300 242.5" enable-background="new 0 0 300 242.5" xml:space="preserve">
<g id="ROSIE">
</g>
<g id="FINS">
</g>
<g id="GNOME">
</g>
<g id="MOONMOLE">
</g>
<g id="HUGBOT">
</g>
<g id="YETI">
</g>
<g id="KRAKEN">
</g>
<g id="DENIS">
</g>
<g id="MONSTER">
	<g>
		<path fill="#2696B5" d="M190.021,140.191c3.21,0.429,8.145,0.488,11.02-0.106c3.104-0.642,4.387-3.102,4.709-6.419
			c0.29-3.013-3.05-16.349-3.316-18.938c-0.32-3.104-0.006-6.351,2.459-8.025c2.998-2.033,9.523-1.818,11.342,0.856
			c1.303,1.915,5.242,21.077,2.248,34.024c-1.434,6.195-6.101,12.518-11.449,14.016c-3.297,0.922-11.663,2.031-16.263,0.427
			L190.021,140.191z"/>
		<path fill="#2BB0D6" d="M201.791,159.558c-0.937-9.549-5.963-22.951-6.827-25.704c-0.105-0.333,2.028,0.436,3.12,0.724
			c0.467,0.123,0.223-0.674-0.038-1.34c-2.925-7.568-5.777-13.643-10.892-20.513c-0.166-0.222,2.796,0.684,3.557,0.731
			c0.38,0.025,0.18-0.516-0.049-0.907c-1.443-2.477-5.99-9.002-7.487-10.554c-0.199-0.207,1.658,0.107,2.399,0.094
			c0.479-0.009,0.844-0.18,0.58-0.642c-2.067-3.636-11.324-11.533-12.93-12.932c-0.338-0.295,1.895-0.003,2.509-0.041
			c0.496-0.03,0.918-0.154,0.45-0.669c-6.032-6.654-17.906-11.483-24.105-11.956c-0.545-0.042-1.215-0.018-1.975,0.061
			c0.209-0.923,0.548-2.369,0.75-3.167c0.143-0.559-0.171-1.011-1.076-0.452c-1.537,0.948-2.779,2.322-3.968,3.727
			c-0.526,0.625-0.958,1.368-1.128,0.289c-0.192-1.214-0.153-2.005-0.163-3.446c-0.007-1.168-0.677-0.814-1.187-0.402
			c-1.172,0.944-1.91,2.142-3.022,3.9c-0.231,0.367-0.404,0.729-0.849,0.383c-2.549-1.965-5.13-3.218-6.945-3.407
			c-1.104-0.115-1.533,0.008-1.195,0.678c0.899,1.791,2.541,3.74,3.298,4.597c0.354,0.401,0.02,0.794-0.493,0.499
			c-1.285-0.741-3.922-1.37-5.412-1.417c-0.629-0.022-1.492,0.107-0.918,0.79c0.646,0.767,2.302,2.565,2.641,2.935
			c-5.279,2.061-13.165,9.689-15.076,15.264c-0.348,1.019-0.601,2.244,0.215,1.786c1.201-0.674,4.158-1.758,3.753-1.159
			c-2.975,4.393-7.109,14.644-6.589,19.294c0.082,0.713,0.588,0.688,0.94,0.492c0.833-0.466,2.36-1.302,2.278-0.867
			c-1.409,7.611-2.468,17.422-2.146,20.345c0.163,1.462,0.189,2.407,0.843,1.806c0.914-0.835,2.347-1.769,2.267-1.367
			c-0.851,4.243-0.646,13.167-0.572,15.849c0.021,0.695,0.576,0.699,0.967,0.363c0.612-0.527,2.281-1.955,2.201-1.474
			c-0.839,5.027-2.663,14.052-2.32,18.013c0.053,0.604,0.39,1.004,1.129,0.258c0.907-0.911,2.93-3.319,3.034-2.919
			c0.006,0.017,0.01,0.034,0.016,0.049c-3.901,11.953-6.151,21.729-6.286,23.955c-0.033,0.51,0.538,0.643,0.886,0.281
			c0.631-0.645,3.068-2.094,2.93-1.51c-4.134,17.318-3.402,19.406-3.508,21.087l77.942-1.417c1.498-4.303,2.783-10.293,3.16-25.782
			c0.016-0.59,1.856,1.141,2.321,1.682c0.831,0.969,1.061,0.491,1.152-1.277c0.529-10.205-0.257-19.603-1.921-25.96
			c1.261,0.744,2.574,1.684,2.884,1.992C201.49,160.753,201.887,160.521,201.791,159.558"/>
		<path fill="#3B2414" d="M143.722,123.688c-0.76-0.52-0.166-1.857,0.642-1.443c1.151,0.588,8.988,5.857,16.689,5.377
			c5.628-0.353,9.871-3.29,12.6-7.142c2.729-3.853,2.704-7.062,2.809-8.025c0.106-0.963,1.605-1.382,1.605,0.241
			c0,1.845-0.08,5.297-2.808,9.708c-2.556,4.133-8.515,8.059-15.836,7.73C151.666,129.787,145.247,124.732,143.722,123.688"/>
		<path fill="#FFFFFF" d="M169.422,99.435c1.865,7.172-2.438,14.498-9.609,16.361c-7.172,1.864-14.495-2.438-16.359-9.61
			c-1.865-7.171,2.438-14.496,9.611-16.36C160.235,87.963,167.561,92.265,169.422,99.435"/>
		<path fill="#3B2414" d="M161.017,102.294c0.548,2.105-0.714,4.259-2.823,4.806c-2.105,0.549-4.26-0.717-4.805-2.823
			c-0.546-2.108,0.717-4.26,2.822-4.807C158.318,98.921,160.47,100.186,161.017,102.294"/>
		<path fill="#E5E6E5" d="M228.646,216.583c5.777-19.58-14.569-34.036-32.954-13.693c2.89-21.828-29.951-33.721-43.224-7.918
			c-2.229-17.943-38.946-26.749-45.148,3.638c-12.603-12.756-32.364-6.687-33.168,16.155c-19.036-4.449-29.851,12.197-25.935,21.47
			c0.909,2.153,202.461,1.365,204.074-0.415C253.936,233.997,248.866,209.522,228.646,216.583"/>
		<path fill="#AB5C1C" d="M211.129,106.867c-2.019-0.226-5.78,3.28-6.069,5.276c-0.294,2.017,0.345,4.413,0.436,6.337
			c0.083,1.723,0.125,2.713-0.912,3.627c-0.39,0.343-55.995,44.588-92.776,73.847c-2.115-2.223-5.036-3.01-7.317-2.842
			c-8.428,0.619-30.53,18.947-34.488,23.991c-2.142,2.727-2.287,6.977-1.249,9.136c1.396,2.906,4.992,7.896,7.709,9.938
			c2.565,1.928,6.004,1.721,9.228,0.559c5.372-1.935,28.336-19.994,32.291-27.327c1.429-2.645,0.092-5.263-2.054-8.263
			c36.428-28.916,91.219-72.585,92.37-73.586c1.12-0.969,2.959-1.084,4.19-0.662c1.607,0.553,4.998,2.265,6.707,2.254
			c1.713-0.009,5.025-2.561,5.655-4.491C226.271,120.32,215.011,107.299,211.129,106.867"/>
		<path fill="#2BB0D6" d="M208.851,113.123c-0.738-1.355-0.892-2.254-0.533-3.959c0.428-2.032,2.997-6.312,4.921-7.382
			c1.223-0.677,2.462-0.107,3.854,0.749c5.063,3.116,10.055,11.876,10.592,14.445c0.312,1.5-0.267,2.62-1.177,3.53
			c-0.749,0.749-2.034,1.393-3.424,2.14c-1.204,0.65-2.782,0.964-4.174,0C216.426,120.926,210.139,115.476,208.851,113.123"/>
		<path fill="#2696B5" d="M220.993,117.163c0.827-0.692,4.003-2.888,5.144-3.808c-0.202-0.376-0.416-0.762-0.65-1.16
			c-1.527,0.354-4.018,1.407-5.936,2.96c-1.889,1.531-3.555,3.651-4.117,4.734c0.396,0.339,0.783,0.665,1.155,0.969
			C217.732,119.789,219.969,118.025,220.993,117.163 M211.581,115.932c-0.084,0.082-0.168,0.136-0.251,0.172
			c-0.276-0.28-0.539-0.555-0.784-0.822c0.007-0.033,0.007-0.066,0.019-0.1c0.185-0.519,2.007-3.905,4.225-5.991
			c1.812-1.701,4.31-3.317,5.645-3.665c0.049-0.012,0.102-0.014,0.153-0.015c0.222,0.235,0.436,0.478,0.651,0.724
			c-0.028,0.091-0.075,0.184-0.163,0.281c-0.69,0.761-4.279,4.386-5.026,5.082C215.299,112.294,212.33,115.182,211.581,115.932"/>
		<path fill="#2BB0D6" d="M123.741,145.113c-4.814,1.283-21.541,8.702-24.555,20.303c-3.211,12.356,1,20.981,9.628,23.991
			c6.902,2.406,13.08-1.443,13.643-1.123c0.909,0.52,1.437,2.355,1.685,3.289c0.32,1.204-0.562,3.291,0,4.093
			c0.491,0.701,1.739,1.095,3.452,1.043c2.647-0.079,9.62-5.345,12.036-9.548c2.165-3.772,2.968-9.31-0.081-13.241
			c-1.76-2.268-3.771-3.664-6.982-2.167c-3.209,1.499-11.229,2.321-11.875,0.081c-1.203-4.173,3.881-7.917,6.018-9.629"/>
		<path fill="#2696B5" d="M125.987,161.482c1.021-0.545,1.205-0.16,0.643,0.562c-0.709,0.913-7.142,7.784-5.057,9.389
			c2.088,1.604,11.156-0.803,13.562-0.723c1.612,0.054,3.799,1.579,4.279,2.542c0.482,0.96,0.028,0.934-0.697,0.373
			c-1.265-0.986-2.137-1.231-3.582-1.311c-1.77-0.099-8.825,2.729-12.679,2.167c-2.336-0.341-4.929-2.322-3.77-5.216
			C119.488,167.261,123.741,162.687,125.987,161.482"/>
	</g>
</g>
<g id="GOAT">
</g>
<g id="RACOON">
</g>
<g id="UNICORN">
</g>
</svg>
