<?xml version="1.0" encoding="utf-8"?>
<!-- Generator: Adobe Illustrator 16.0.0, SVG Export Plug-In . SVG Version: 6.00 Build 0)  -->
<!DOCTYPE svg PUBLIC "-//W3C//DTD SVG 1.1//EN" "http://www.w3.org/Graphics/SVG/1.1/DTD/svg11.dtd">
<svg version="1.1" xmlns="http://www.w3.org/2000/svg" xmlns:xlink="http://www.w3.org/1999/xlink" x="0px" y="0px" width="200px"
	 height="242.5px" viewBox="0 0 200 242.5" enable-background="new 0 0 200 242.5" xml:space="preserve">
<g id="ROSIE">
</g>
<g id="FINS">
</g>
<g id="GNOME">
</g>
<g id="MOONMOLE">
</g>
<g id="HUGBOT">
	<g>
		<path fill="#BD232F" d="M65.462,8.759l-17.86,5.654c-0.9,0.286-1.863-0.214-2.148-1.115c-0.285-0.9,0.213-1.863,1.114-2.147
			L64.43,5.493c0.9-0.285,1.861,0.215,2.146,1.115C66.861,7.51,66.363,8.474,65.462,8.759"/>
		<path fill="#BD232F" d="M62.501,30.608c-0.901,0.285-1.862-0.215-2.149-1.117l-5.987-18.91c-0.284-0.9,0.213-1.865,1.115-2.149
			c0.901-0.284,1.864,0.216,2.147,1.116l5.988,18.911C63.9,29.36,63.402,30.323,62.501,30.608"/>
		<path fill="#FFC216" d="M85.31,27.509c-1.152-1.875-3.082-3.893-6.498-3.266c-4.227,0.776-29.949,8.922-33.736,10.682
			c-3.149,1.461-3.569,4.213-3.434,6.412c0.135,2.197,10.933,53.562,11.995,56.027l54.11-17.133
			C107.196,77.603,86.466,29.384,85.31,27.509"/>
		<path fill="#492F20" d="M61.155,64.844c-0.423-1.354,23.197-9.396,23.689-8.035c1.445,3.986-1.639,11.112-8.621,13.582
			C69.733,72.687,62.479,69.067,61.155,64.844"/>
		<path fill="#492F20" d="M86.358,47.087c0.428,2.133-0.953,4.211-3.088,4.639c-2.133,0.428-4.211-0.953-4.637-3.086
			c-0.43-2.135,0.953-4.213,3.086-4.639C83.853,43.571,85.931,44.954,86.358,47.087"/>
		<path fill="#492F20" d="M60.557,55.761c0.427,2.133-0.953,4.209-3.088,4.637c-2.133,0.429-4.209-0.953-4.637-3.086
			c-0.43-2.135,0.952-4.212,3.086-4.639C58.053,52.243,60.129,53.626,60.557,55.761"/>
		<path fill="#492F20" d="M59.002,65.636c-0.73-0.986,29.108-11.019,29.114-9.84c0.014,6.551-3.332,16.666-10.652,18.376
			C71.224,75.627,62.931,70.956,59.002,65.636"/>
		<path fill="#FFC216" d="M158.968,203.22c-5.639,3.188-11.172,6.314-14.652,8.281c-5.859-21.398-14.947-38.008-27.203-48.146
			c5.062-2.859,9.801-5.539,14.652-8.279C144.589,165.636,154.892,184.392,158.968,203.22"/>
		<path fill="#F37124" d="M131.335,180.177c0.582,0.945,1.15,1.918,1.705,2.906l14.113-9.58c-0.582-0.967-1.18-1.918-1.793-2.848
			L131.335,180.177z"/>
		<path fill="#F37124" d="M152.575,183.901l-14.6,9.229c0.445,1.037,0.881,2.086,1.305,3.156l14.637-9.25
			C153.487,185.981,153.04,184.938,152.575,183.901"/>
		<path fill="#F37124" d="M143.017,207.286c-0.252-0.924,0.279-1.299,0.727-1.561c1.043-0.609,19.949-11.523,20.672-11.871
			c1.389-0.668,1.918-0.789,2.484,0.051c1.352,2.004,4.352,7.906,5.256,10.725c0.268,0.83,0.375,1.209-0.889,1.961
			c-1.492,0.887-22.031,12.48-22.889,12.934c-1.029,0.543-1.578,0.498-2.256-0.5C145.384,217.942,143.368,208.579,143.017,207.286"
			/>
		<path fill="#FFC216" d="M68.9,225.347c-5.891-2.695-11.668-5.342-15.303-7.006c13.887-17.303,22.003-34.41,23.019-50.281
			c5.285,2.422,10.24,4.686,15.303,7.006C90.896,191.646,81.755,210.995,68.9,225.347"/>
		<path fill="#F37124" d="M71.343,189.446c-0.425,1.027-0.877,2.057-1.354,3.09l16.041,5.803c0.441-1.039,0.857-2.08,1.254-3.123
			L71.343,189.446z"/>
		<path fill="#F37124" d="M80.792,208.831l-16.042-6.404c-0.576,0.967-1.171,1.938-1.789,2.908l16.079,6.422
			C79.644,210.79,80.224,209.815,80.792,208.831"/>
		<path fill="#F37124" d="M56.248,214.817c0.6-0.748,1.217-0.537,1.691-0.328c1.102,0.484,21.038,9.391,21.741,9.771
			c1.354,0.729,1.764,1.088,1.414,2.043c-0.828,2.266-3.844,8.16-5.596,10.549c-0.516,0.701-0.758,1.012-2.106,0.43
			c-1.598-0.688-23.037-10.514-23.907-10.943c-1.046-0.516-1.329-0.984-0.919-2.119C49.009,222.989,55.409,215.858,56.248,214.817"
			/>
		<path fill="#FFC216" d="M178.813,69.956c-17.342,31.191-45.104,39.85-69.215,22.475c2.25-3.154,5.137-7.656,8.381-11.742
			c17.215,11.059,35.762,4.85,49.791-17.793C171.296,65.081,175.288,67.767,178.813,69.956"/>
		<path fill="#F37124" d="M166.413,86.81l-9.139-10.793c0.748-0.708,1.494-1.414,2.225-2.192l9.059,10.702
			C167.851,85.313,167.138,86.077,166.413,86.81"/>
		<path fill="#F37124" d="M131.241,101.056l-1.135-15.488c1.051,0.186,2.102,0.305,3.148,0.367l1.119,15.307
			C133.331,101.222,132.286,101.161,131.241,101.056"/>
		<path fill="#F37124" d="M145.888,83.673c0.941-0.398,1.877-0.852,2.807-1.355l5.773,13.697c-0.92,0.514-1.844,0.992-2.777,1.43
			L145.888,83.673z"/>
		<path fill="#BD232F" d="M173.511,70.854c16.938,6.188,21.779-11.211,22.678-16.92c0.086-0.539,0.172-1.18-0.398-1.443
			c-0.773-0.353-6.234-2.224-7.213-2.393c-0.568-0.1-0.766,0.396-0.852,0.723c-1.254,4.721-4.283,13.277-10.836,10.885
			c-6.549-2.395-3.275-10.86-1.191-15.279c0.145-0.304,0.312-0.811-0.186-1.102c-0.857-0.5-6.309-2.616-7.129-2.844
			c-0.605-0.17-0.955,0.377-1.234,0.844C164.155,48.269,156.571,64.667,173.511,70.854"/>
		<path fill="#FFC216" d="M16.508,159.839c0.045-0.006,0.09-0.01,0.135-0.016c3.499-0.42,6.042-3.508,5.831-7.027
			c-1.202-20.215,6.702-33.705,21.55-38.1l-4.367-14.133c-21.871,5.643-33.668,25.619-30.572,53.367
			C9.496,157.618,12.822,160.282,16.508,159.839"/>
		<path fill="#F37124" d="M26.746,106.306c-0.872,0.586-1.713,1.209-2.527,1.863l10.658,11.045c0.844-0.625,1.727-1.201,2.651-1.732
			L26.746,106.306z"/>
		<path fill="#F37124" d="M13.345,122.169c-0.437,0.932-0.84,1.893-1.219,2.873l13.204,6.832c0.391-0.984,0.82-1.928,1.287-2.838
			L13.345,122.169z"/>
		<path fill="#F37124" d="M22.77,142.21c-0.123,1.02-0.244,2.039-0.307,3.107L8.652,142.89c0.041-1.059,0.099-2.102,0.186-3.129
			L22.77,142.21z"/>
		<path fill="#BD232F" d="M15.271,150.978c-17.273,5.176-10.742,22.014-8.047,27.125c0.254,0.482,0.568,1.049,1.184,0.916
			c0.832-0.178,6.326-1.947,7.211-2.396c0.516-0.26,0.377-0.775,0.249-1.088c-1.819-4.533-4.513-13.201,2.169-15.205
			c6.682-2.002,9.126,6.74,10.1,11.527c0.066,0.332,0.234,0.84,0.807,0.773c0.986-0.113,6.621-1.678,7.416-1.988
			c0.584-0.229,0.536-0.871,0.483-1.416C36.283,163.476,32.545,145.798,15.271,150.978"/>
		<path fill="#F37124" d="M147.237,154.034c0.678,2.791-0.164,4.826-3.131,6.037c-8.439,3.441-65.658,21.418-73.541,23.283
			c-2.535,0.602-4.822-0.236-6.036-3.133c-3.141-7.48-23.34-71.281-24.857-78.506c-0.494-2.354,0.952-5.197,3.133-6.035
			c10.177-3.924,64.81-21.22,73.542-23.284c2.078-0.493,5.229,0.868,6.035,3.133C123.888,79.755,145.388,146.423,147.237,154.034"/>
		<path fill="#BD232F" d="M100.558,99.827c-8.131-2.354-11.947,7.633-11.629,14.521c-3.701-5.816-12.57-11.785-17.866-5.184
			c-7.781,9.701,13.259,30.838,25.903,34.883c0.979,0.314,1.783,0.082,2.48-0.779C107.813,132.919,112.509,103.28,100.558,99.827"/>
	</g>
</g>
<g id="YETI">
</g>
<g id="KRAKEN">
</g>
<g id="DENIS">
</g>
<g id="MONSTER">
</g>
<g id="GOAT">
</g>
<g id="RACOON">
</g>
<g id="UNICORN">
</g>
</svg>
